<svg width="375" height="386" viewBox="0 0 375 386" fill="none" xmlns="http://www.w3.org/2000/svg">
<path d="M-1.67852 5.24306C-6.92414 -28.0686 -10.9994 126 276.335 20.789C305.646 17.0225 336.135 20.7886 376.001 36.3346V385C376.001 385 386.001 355 290.001 361C246.353 363.728 181.1 380.131 124.001 385C55.5149 390.841 -1.67852 328 -1.67852 328V5.24306Z" fill="url(#paint0_linear_312_452)"/>
<path d="M-1.67852 5.24306C-6.92414 -28.0686 -10.9994 126 276.335 20.789C305.646 17.0225 336.135 20.7886 376.001 36.3346V385C376.001 385 386.001 355 290.001 361C246.353 363.728 181.1 380.131 124.001 385C55.5149 390.841 -1.67852 328 -1.67852 328V5.24306Z" fill="url(#paint1_radial_312_452)" fill-opacity="0.2"/>
<defs>
<linearGradient id="paint0_linear_312_452" x1="187.16" y1="9.83701" x2="186.98" y2="222.727" gradientUnits="userSpaceOnUse">
<stop stop-color="#C54B97" stop-opacity="0"/>
<stop offset="0.755208" stop-color="#620D42"/>
</linearGradient>
<radialGradient id="paint1_radial_312_452" cx="0" cy="0" r="1" gradientUnits="userSpaceOnUse" gradientTransform="translate(329.839 45.6775) rotate(145.523) scale(544.693 1520.05)">
<stop stop-color="#F80A9E"/>
<stop offset="1" stop-opacity="0"/>
</radialGradient>
</defs>
</svg>
