<svg width="180" height="256" viewBox="0 0 180 256" fill="none" xmlns="http://www.w3.org/2000/svg">
<path d="M176.043 218.348C182.7 230.867 177.97 246.693 164.376 250.722C152.522 254.236 140.179 256.026 127.725 256C106.675 255.954 85.9617 250.719 67.4188 240.756C48.876 230.793 33.0763 216.411 21.4194 198.884C9.76239 181.357 2.60794 161.225 0.589723 140.272C-1.4285 119.32 1.75183 98.1926 9.84898 78.7625C17.9461 59.3325 30.7102 42.1992 47.0105 28.8804C63.3108 15.5616 82.6442 6.46835 103.298 2.40613C115.518 0.00280571 127.976 -0.595659 140.283 0.590666C154.396 1.95115 162.059 16.5836 157.914 30.1427C153.77 43.7018 139.238 50.859 125.07 51.401C121.098 51.5529 117.132 52.0139 113.207 52.7859C100.838 55.2186 89.2597 60.6643 79.498 68.6405C69.7363 76.6167 62.0923 86.8772 57.2432 98.5133C52.394 110.149 50.4895 122.802 51.6981 135.35C52.9068 147.898 57.1913 159.954 64.1723 170.45C71.1533 180.947 80.6152 189.56 91.7199 195.526C102.825 201.492 115.229 204.628 127.835 204.655C131.836 204.664 135.817 204.359 139.744 203.75C153.755 201.578 169.386 205.83 176.043 218.348Z" fill="white"/>
<path d="M176.043 218.348C182.7 230.867 177.97 246.693 164.376 250.722C152.522 254.236 140.179 256.026 127.725 256C106.675 255.954 85.9617 250.719 67.4188 240.756C48.876 230.793 33.0763 216.411 21.4194 198.884C9.76239 181.357 2.60794 161.225 0.589723 140.272C-1.4285 119.32 1.75183 98.1926 9.84898 78.7625C17.9461 59.3325 30.7102 42.1992 47.0105 28.8804C63.3108 15.5616 82.6442 6.46835 103.298 2.40613C115.518 0.00280571 127.976 -0.595659 140.283 0.590666C154.396 1.95115 162.059 16.5836 157.914 30.1427C153.77 43.7018 139.238 50.859 125.07 51.401C121.098 51.5529 117.132 52.0139 113.207 52.7859C100.838 55.2186 89.2597 60.6643 79.498 68.6405C69.7363 76.6167 62.0923 86.8772 57.2432 98.5133C52.394 110.149 50.4895 122.802 51.6981 135.35C52.9068 147.898 57.1913 159.954 64.1723 170.45C71.1533 180.947 80.6152 189.56 91.7199 195.526C102.825 201.492 115.229 204.628 127.835 204.655C131.836 204.664 135.817 204.359 139.744 203.75C153.755 201.578 169.386 205.83 176.043 218.348Z" fill="url(#paint0_linear_286_409)" fill-opacity="0.4"/>
<defs>
<linearGradient id="paint0_linear_286_409" x1="128" y1="74" x2="-8.45542e-06" y2="128" gradientUnits="userSpaceOnUse">
<stop stop-color="#00FFF0"/>
<stop offset="1" stop-color="white" stop-opacity="0"/>
</linearGradient>
</defs>
</svg>
