<svg width="180" height="256" viewBox="0 0 180 256" fill="none" xmlns="http://www.w3.org/2000/svg">
<path d="M3.95766 218.348C-2.69915 230.867 2.03082 246.693 15.6247 250.722C27.4783 254.236 39.822 256.026 52.2756 256C73.3252 255.954 94.0389 250.719 112.582 240.756C131.125 230.793 146.924 216.411 158.581 198.884C170.238 181.357 177.393 161.225 179.411 140.272C181.429 119.32 178.249 98.1926 170.152 78.7625C162.054 59.3325 149.29 42.1992 132.99 28.8804C116.69 15.5616 97.3563 6.46835 76.7023 2.40613C64.4828 0.00280571 52.0242 -0.595659 39.718 0.590666C25.6049 1.95115 17.9411 16.5836 22.086 30.1427C26.231 43.7018 40.7628 50.859 54.931 51.401C58.9023 51.5529 62.8685 52.0139 66.7936 52.7859C79.1626 55.2186 90.7408 60.6643 100.503 68.6405C110.264 76.6167 117.908 86.8772 122.757 98.5133C127.606 110.149 129.511 122.802 128.302 135.35C127.094 147.898 122.809 159.954 115.828 170.45C108.847 180.947 99.3853 189.56 88.2806 195.526C77.1759 201.492 64.7712 204.628 52.1652 204.655C48.165 204.663 44.1836 204.359 40.2564 203.75C26.2453 201.578 10.6145 205.83 3.95766 218.348Z" fill="white"/>
<path d="M3.95766 218.348C-2.69915 230.867 2.03082 246.693 15.6247 250.722C27.4783 254.236 39.822 256.026 52.2756 256C73.3252 255.954 94.0389 250.719 112.582 240.756C131.125 230.793 146.924 216.411 158.581 198.884C170.238 181.357 177.393 161.225 179.411 140.272C181.429 119.32 178.249 98.1926 170.152 78.7625C162.054 59.3325 149.29 42.1992 132.99 28.8804C116.69 15.5616 97.3563 6.46835 76.7023 2.40613C64.4828 0.00280571 52.0242 -0.595659 39.718 0.590666C25.6049 1.95115 17.9411 16.5836 22.086 30.1427C26.231 43.7018 40.7628 50.859 54.931 51.401C58.9023 51.5529 62.8685 52.0139 66.7936 52.7859C79.1626 55.2186 90.7408 60.6643 100.503 68.6405C110.264 76.6167 117.908 86.8772 122.757 98.5133C127.606 110.149 129.511 122.802 128.302 135.35C127.094 147.898 122.809 159.954 115.828 170.45C108.847 180.947 99.3853 189.56 88.2806 195.526C77.1759 201.492 64.7712 204.628 52.1652 204.655C48.165 204.663 44.1836 204.359 40.2564 203.75C26.2453 201.578 10.6145 205.83 3.95766 218.348Z" fill="url(#paint0_linear_286_408)" fill-opacity="0.4"/>
<defs>
<linearGradient id="paint0_linear_286_408" x1="52" y1="74" x2="180" y2="128" gradientUnits="userSpaceOnUse">
<stop stop-color="#FF0000"/>
<stop offset="1" stop-color="white" stop-opacity="0"/>
</linearGradient>
</defs>
</svg>
